<?xml version="1.0" ?><!DOCTYPE svg  PUBLIC '-//W3C//DTD SVG 1.1//EN'  'http://www.w3.org/Graphics/SVG/1.1/DTD/svg11.dtd'><svg height="0.990276in" style="shape-rendering:geometricPrecision; text-rendering:geometricPrecision; image-rendering:optimizeQuality; fill-rule:evenodd; clip-rule:evenodd" version="1.1" viewBox="0 0 6803 6796" width="0.991323in" xml:space="preserve" xmlns="http://www.w3.org/2000/svg" xmlns:xlink="http://www.w3.org/1999/xlink"><defs><style type="text/css">
   <![CDATA[
    .str0 {stroke:black;stroke-width:47.6587}
    .fil0 {fill:black}
   ]]>
  </style></defs><g id="Layer_x0020_1"><g id="_520630296"><g><path class="fil0" d="M4749 3792l85 -357c39,-281 -39,-535 -182,-768l-171 -332c-82,-264 77,-497 353,-517 -936,-882 -2521,-689 -3209,404l86 4c198,0 395,-9 590,-19l117 77 -105 93 -144 11 -55 77c226,674 455,1353 684,2030l70 202 16 -16c148,-450 295,-895 447,-1340l0 -62c-105,-285 -206,-565 -307,-851l-59 -40 -179 -11 -73 -124 112 -46c230,10 455,31 684,15l404 -21 105 78 -93 98 -155 11 -55 77c202,591 397,1181 598,1766l156 462 19 -62c86,-279 160,-565 261,-839z"/><path class="fil0" d="M3633 4107c-62,-172 -124,-342 -194,-529 -213,618 -423,1224 -629,1824l31 56c412,109 820,100 1228,-31l27 -56c-155,-420 -307,-845 -463,-1264z"/><path class="fil0" d="M2472 5318c-338,-932 -676,-1852 -1018,-2791 -458,985 -62,2275 1018,2791z"/><path class="fil0" d="M5534 3273c-16,-305 -94,-590 -234,-860l-15 42c15,274 -28,533 -117,793 -198,559 -388,1113 -586,1672l-109 321 454 -346c432,-456 638,-995 607,-1622z"/></g><path class="fil0 str0" d="M6772 3412c-8,1857 -1516,3360 -3374,3360 -1864,0 -3374,-1511 -3374,-3374 0,-1864 1510,-3374 3374,-3374l3381 0 0 3388 -7 0zm-3374 -3031c1666,0 3016,1351 3016,3017l0 14c-7,1660 -1355,3002 -3016,3002 -1666,0 -3017,-1350 -3017,-3016 0,-1666 1351,-3017 3017,-3017z"/></g></g></svg>